<svg width="13" height="20" viewBox="0 0 13 20" fill="none" xmlns="http://www.w3.org/2000/svg">
<path d="M11.9343 0.0171947C12.4142 -0.083638 12.8676 0.271776 12.8676 0.748857V4.51134C12.8676 4.95258 12.5506 5.33425 12.1067 5.42758L8.22796 6.24299C7.932 6.30549 7.72055 6.55966 7.72055 6.85382C7.72055 6.85382 7.72055 14.2617 7.72055 15.4542C7.72055 18.1213 5.78784 20 3.56518 20C1.01397 20 0 18.5242 0 17.3667C0 15.0254 1.68866 14.2704 3.56518 13.8942C4.77816 13.6513 5.14703 13.2996 5.14703 12.8513C5.14703 12.403 5.14703 2.20052 5.14703 2.20052C5.14703 1.75927 5.464 1.3776 5.90793 1.28427L11.9343 0.0171947Z" fill="white"/>
</svg>
