<svg width="20" height="20" viewBox="0 0 20 20" fill="none" xmlns="http://www.w3.org/2000/svg">
<path d="M7.57269 0C3.39749 0 0 3.51883 0 7.84314C0 12.1675 3.39749 15.6863 7.57269 15.6863C9.07745 15.6863 10.4777 15.2242 11.6578 14.4371L16.5564 19.5106C17.1864 20.1631 18.2081 20.1631 18.8378 19.5106C19.4679 18.858 19.4679 17.8002 18.8378 17.1477L13.9392 12.0742C14.6992 10.8519 15.1454 9.40164 15.1454 7.84314C15.1454 3.51883 11.7479 0 7.57269 0ZM7.57269 3.13726C10.0777 3.13726 12.1163 5.24863 12.1163 7.84314C12.1163 10.4377 10.0777 12.549 7.57269 12.549C5.06764 12.549 3.02908 10.4377 3.02908 7.84314C3.02908 5.24863 5.06764 3.13726 7.57269 3.13726Z" fill="white"/>
</svg>
