<svg width="20" height="20" viewBox="0 0 20 20" fill="none" xmlns="http://www.w3.org/2000/svg">
<path d="M18.9712 7.73167C19.5667 7.83875 20 8.35708 20 8.96208V11.0383C20 11.6433 19.5667 12.1617 18.9712 12.2687L17.7321 12.4917C17.5967 12.9121 17.425 13.3154 17.2262 13.7029L17.9471 14.7404C18.2925 15.2371 18.2325 15.91 17.8046 16.3379L16.3367 17.8058C15.9087 18.2337 15.2358 18.2937 14.7392 17.9483L13.7017 17.2271C13.3142 17.4258 12.9108 17.5975 12.4908 17.7329L12.2679 18.9721C12.1613 19.5667 11.6429 20 11.0379 20H8.96167C8.35667 20 7.83833 19.5667 7.73125 18.9712L7.50833 17.7321C7.08792 17.5967 6.68458 17.4254 6.2975 17.2262L5.26 17.9475C4.76333 18.2929 4.09042 18.2329 3.6625 17.805L2.19458 16.3371C1.76667 15.9092 1.70667 15.2367 2.05208 14.7396L2.77292 13.7021C2.57417 13.3146 2.4025 12.9113 2.26708 12.4908L1.02792 12.2679C0.433333 12.1613 0 11.6429 0 11.0379V8.96167C0 8.35667 0.433333 7.83833 1.02875 7.73125L2.26792 7.50833C2.40333 7.08792 2.575 6.68458 2.77375 6.29708L2.05292 5.25958C1.7075 4.76292 1.7675 4.09 2.19542 3.66208L3.66333 2.19417C4.09125 1.76625 4.76417 1.70625 5.26083 2.05167L6.29833 2.77292C6.68583 2.57417 7.08917 2.4025 7.50917 2.26708L7.73208 1.02792C7.83875 0.433333 8.35708 0 8.96208 0H11.0383C11.6433 0 12.1617 0.433333 12.2687 1.02875L12.4917 2.26792C12.9121 2.40333 13.3154 2.57458 13.7025 2.77375L14.74 2.0525C15.2367 1.70708 15.9096 1.76708 16.3375 2.195L17.8054 3.66292C18.2333 4.09083 18.2933 4.76333 17.9479 5.26042L17.2271 6.29792C17.4258 6.68542 17.5975 7.08875 17.7329 7.50917L18.9712 7.73167ZM10 13.75C12.0708 13.75 13.75 12.0712 13.75 10C13.75 7.92875 12.0708 6.25 10 6.25C7.92917 6.25 6.25 7.92875 6.25 10C6.25 12.0712 7.92917 13.75 10 13.75Z" fill="white"/>
</svg>
