<svg width="20" height="20" viewBox="0 0 20 20" fill="none" xmlns="http://www.w3.org/2000/svg">
<path d="M5.70138 18.006L4.16306 19.5443C3.74079 19.9512 2.74551 20.3219 1.99404 19.5443L0.455725 18.006C-0.151908 17.406 -0.151908 16.4369 0.455725 15.8369C0.755697 15.537 1.14797 15.3831 1.54024 15.3831V1.53831C1.54024 0.692241 2.23248 0 3.07855 0C3.92462 0 4.61686 0.692241 4.61686 1.53831V15.3831C5.00913 15.3831 5.4014 15.537 5.70138 15.8369C6.30901 16.4369 6.30901 17.406 5.70138 18.006ZM18.4617 3.84578H10.7701C10.3621 3.84578 9.97086 3.68371 9.68237 3.39522C9.39388 3.10673 9.2318 2.71546 9.2318 2.30747C9.2318 1.89948 9.39388 1.50821 9.68237 1.21972C9.97086 0.931229 10.3621 0.769157 10.7701 0.769157H18.4617C18.8697 0.769157 19.2609 0.931229 19.5494 1.21972C19.8379 1.50821 20 1.89948 20 2.30747C20 2.71546 19.8379 3.10673 19.5494 3.39522C19.2609 3.68371 18.8697 3.84578 18.4617 3.84578ZM18.4617 7.69157C18.4617 7.28358 18.2996 6.89231 18.0111 6.60382C17.7226 6.31533 17.3314 6.15325 16.9234 6.15325H10.7701C10.3621 6.15325 9.97086 6.31533 9.68237 6.60382C9.39388 6.89231 9.2318 7.28358 9.2318 7.69157C9.2318 8.09955 9.39388 8.49083 9.68237 8.77932C9.97086 9.06781 10.3621 9.22988 10.7701 9.22988H16.9234C17.3314 9.22988 17.7226 9.06781 18.0111 8.77932C18.2996 8.49083 18.4617 8.09955 18.4617 7.69157ZM16.9234 13.0757C16.9234 12.6677 16.7613 12.2764 16.4728 11.9879C16.1843 11.6994 15.793 11.5374 15.3851 11.5374H10.7701C10.3621 11.5374 9.97086 11.6994 9.68237 11.9879C9.39388 12.2764 9.2318 12.6677 9.2318 13.0757C9.2318 13.4837 9.39388 13.8749 9.68237 14.1634C9.97086 14.4519 10.3621 14.614 10.7701 14.614H15.3851C15.793 14.614 16.1843 14.4519 16.4728 14.1634C16.7613 13.8749 16.9234 13.4837 16.9234 13.0757ZM15.3851 18.4598C15.3851 18.0518 15.223 17.6605 14.9345 17.372C14.646 17.0835 14.2547 16.9214 13.8467 16.9214H10.7701C10.3621 16.9214 9.97086 17.0835 9.68237 17.372C9.39388 17.6605 9.2318 18.0518 9.2318 18.4598C9.2318 18.8678 9.39388 19.259 9.68237 19.5475C9.97086 19.836 10.3621 19.9981 10.7701 19.9981H13.8467C14.2547 19.9981 14.646 19.836 14.9345 19.5475C15.223 19.259 15.3851 18.8678 15.3851 18.4598Z" fill="white"/>
</svg>
