<svg width="22" height="22" viewBox="0 0 22 22" fill="none" xmlns="http://www.w3.org/2000/svg">
<path d="M1 10.9702C1 16.4627 5.52381 21 11 21C16.4762 21 21 16.4627 21 10.9702C21 5.47761 16.4762 1 11 1C5.52381 1 1 5.47761 1 10.9702ZM14.6905 15.6268C12.3691 14.1941 9.39289 13.8358 5.94048 14.6119C5.10714 14.7314 4.98809 13.5373 5.70238 13.4179C9.51189 12.5224 12.7262 12.9403 15.3452 14.5522C16 14.9702 15.3452 15.9851 14.6905 15.6268ZM15.7024 12.9403C13.0238 11.2686 8.91667 10.791 5.7619 11.7463C4.75 12.0448 4.39286 10.4925 5.34524 10.2537C8.97619 9.17913 13.4405 9.71643 16.5357 11.6268C17.3691 12.1642 16.5357 13.4776 15.7024 12.9403ZM5.28571 8.70148C4.27381 9.05968 3.61905 7.32835 4.75 6.91044C8.2619 5.83582 14.2143 6.01492 17.9048 8.22387C18.9167 8.76118 17.9643 10.4329 16.8929 9.83579C13.6786 7.92536 8.32143 7.74626 5.28571 8.70148Z" stroke="white" stroke-linejoin="round"/>
</svg>
