<svg width="20" height="20" viewBox="0 0 20 20" fill="none" xmlns="http://www.w3.org/2000/svg">
<path d="M1.80953 1.80953L1.47119 1.47438L1.4752 1.47043L1.80953 1.80953ZM1.80953 18.1905L1.47438 18.5288L1.47043 18.5248L1.80953 18.1905ZM18.1905 18.1905L18.5289 18.5257L18.5249 18.5297L18.1905 18.1905ZM18.1905 1.80953L18.5256 1.47119L18.5296 1.4752L18.1905 1.80953ZM3.68889 6.27303L3.2128 6.28279C3.21018 6.15483 3.25917 6.0312 3.34874 5.93978C3.43831 5.84835 3.5609 5.79684 3.68889 5.79684V6.27303ZM10.8635 14.1969H11.3397C11.3397 14.4598 11.1265 14.6731 10.8635 14.6731V14.1969ZM10.8635 11.3651H10.3873C10.3873 11.2306 10.4442 11.1024 10.5439 11.0121C10.6436 10.9218 10.7768 10.8779 10.9107 10.8913L10.8635 11.3651ZM14.1461 14.1969V14.6731C13.939 14.6731 13.7558 14.5394 13.6927 14.3422L14.1461 14.1969ZM16.4 14.1969L16.8597 14.0726C16.8984 14.2156 16.8683 14.3686 16.7782 14.4863C16.688 14.604 16.5483 14.6731 16.4 14.6731V14.1969ZM13.1428 10.2222L12.9307 10.6486C12.7755 10.5713 12.6745 10.4157 12.6671 10.2425C12.6597 10.0693 12.7471 9.90573 12.8952 9.81554L13.1428 10.2222ZM15.9238 6.26668V5.79049C16.0668 5.79049 16.2023 5.85477 16.2928 5.96558C16.3832 6.07638 16.419 6.22197 16.3904 6.3621L15.9238 6.26668ZM13.8794 6.26668L13.4211 6.13733C13.479 5.93216 13.6662 5.79049 13.8794 5.79049V6.26668ZM10.8635 9.40316L10.914 9.87668C10.7797 9.89107 10.6456 9.84764 10.5451 9.75735C10.4446 9.66697 10.3873 9.5383 10.3873 9.40316H10.8635ZM10.8635 6.27303V5.79684C11.1265 5.79684 11.3397 6.01004 11.3397 6.27303H10.8635ZM8.81274 6.27303H8.33655C8.33655 6.01004 8.54969 5.79684 8.81274 5.79684V6.27303ZM8.81274 11.7588H9.28893C9.28893 11.9054 9.22131 12.0438 9.10579 12.1341C8.99017 12.2243 8.8395 12.2563 8.69722 12.2207L8.81274 11.7588ZM5.87302 6.27303V5.79684C6.13245 5.79684 6.34413 6.0045 6.34913 6.26387L5.87302 6.27303ZM1.32312e-07 9.61907C1.32312e-07 7.4769 -0.000999883 5.82339 0.170877 4.53922C0.344582 3.24136 0.702544 2.25036 1.47119 1.47438L2.14783 2.14464C1.58316 2.7147 1.27447 3.47294 1.11484 4.66556C0.953383 5.87187 0.952383 7.45011 0.952383 9.61907H1.32312e-07ZM1.32312e-07 10.381V9.61907H0.952383V10.381H1.32312e-07ZM1.47043 18.5248C0.702525 17.7459 0.344591 16.754 0.170877 15.456C-0.000999883 14.1719 1.32312e-07 12.52 1.32312e-07 10.381H0.952383C0.952383 12.5467 0.953383 14.1234 1.11484 15.3297C1.27445 16.5222 1.58319 17.2827 2.14862 17.8562L1.47043 18.5248ZM9.61903 20C7.4769 20 5.82339 20.0011 4.53922 19.8292C3.24135 19.6555 2.25036 19.2975 1.47438 18.5288L2.14464 17.8522C2.7147 18.4169 3.47294 18.7256 4.66556 18.8852C5.87187 19.0466 7.45011 19.0477 9.61903 19.0477V20ZM10.3809 20H9.61903V19.0477H10.3809V20ZM18.5249 18.5297C17.746 19.2976 16.754 19.6555 15.4561 19.8292C14.1719 20.0011 12.52 20 10.3809 20V19.0477C12.5467 19.0477 14.1234 19.0466 15.3297 18.8852C16.5223 18.7256 17.2827 18.4168 17.8562 17.8514L18.5249 18.5297ZM20 10.381C20 12.5232 20.001 14.1767 19.8291 15.4608C19.6554 16.7587 19.2975 17.7497 18.5289 18.5257L17.8522 17.8554C18.4169 17.2854 18.7256 16.5271 18.8852 15.3345C19.0467 14.1281 19.0476 12.5499 19.0476 10.381H20ZM20 9.61907V10.381H19.0476V9.61907H20ZM18.5296 1.4752C19.2975 2.25408 19.6554 3.24604 19.8291 4.54398C20.001 5.82814 20 7.48005 20 9.61907H19.0476C19.0476 7.45331 19.0467 5.87664 18.8852 4.67032C18.7256 3.47778 18.4169 2.71736 17.8514 2.14385L18.5296 1.4752ZM10.3809 1.32312e-07C12.5231 1.32312e-07 14.1767 -0.000999883 15.4608 0.170877C16.7587 0.344582 17.7496 0.702535 18.5256 1.47119L17.8554 2.14783C17.2853 1.58316 16.5271 1.27447 15.3345 1.11484C14.1282 0.953383 12.5499 0.952383 10.3809 0.952383V1.32312e-07ZM9.61903 1.32312e-07H10.3809V0.952383H9.61903V1.32312e-07ZM1.4752 1.47043C2.25408 0.702525 3.24604 0.344601 4.54398 0.170877C5.82814 -0.000999883 7.48005 1.32312e-07 9.61903 1.32312e-07V0.952383C7.45331 0.952383 5.87663 0.953383 4.67032 1.11484C3.47778 1.27445 2.71736 1.58319 2.14385 2.14862L1.4752 1.47043ZM10.6095 14.6731C8.32169 14.6731 6.4767 13.8855 5.19813 12.4031C3.92905 10.9316 3.26506 8.8304 3.2128 6.28279L4.16499 6.26326C4.21431 8.66802 4.83921 10.5287 5.91933 11.7811C6.98998 13.0224 8.55455 13.7207 10.6095 13.7207V14.6731ZM10.6159 14.6731H10.6095V13.7207H10.6159V14.6731ZM10.8635 14.6731H10.6159V13.7207H10.8635V14.6731ZM11.3397 11.3651V14.1969H10.3873V11.3651H11.3397ZM13.6927 14.3422C13.2565 12.9821 12.1863 11.9754 10.8163 11.839L10.9107 10.8913C12.728 11.0723 14.0706 12.402 14.5995 14.0515L13.6927 14.3422ZM16.4 14.6731H14.1461V13.7207H16.4V14.6731ZM15.5659 11.5585C16.17 12.2956 16.6109 13.1525 16.8597 14.0726L15.9404 14.3212C15.7268 13.5311 15.3481 12.7952 14.8292 12.1622L15.5659 11.5585ZM13.355 9.79592C14.2083 10.2206 14.9618 10.8214 15.5659 11.5585L14.8292 12.1622C14.3105 11.5292 13.6634 11.0133 12.9307 10.6486L13.355 9.79592ZM15.3352 8.80821C14.819 9.5424 14.157 10.1622 13.3906 10.629L12.8952 9.81554C13.5499 9.41687 14.1152 8.88744 14.5561 8.26049L15.3352 8.80821ZM16.3904 6.3621C16.2106 7.24133 15.8513 8.07404 15.3352 8.80821L14.5561 8.26049C14.9969 7.63341 15.3037 6.92221 15.4573 6.17127L16.3904 6.3621ZM13.8794 5.79049H15.9238V6.74287H13.8794V5.79049ZM10.813 8.92973C11.2859 8.87925 11.8311 8.57106 12.3286 8.04745C12.8197 7.53041 13.2207 6.84705 13.4211 6.13733L14.3377 6.39603C14.0935 7.26091 13.6121 8.07914 13.0191 8.70335C12.4324 9.32097 11.692 9.79373 10.914 9.87668L10.813 8.92973ZM11.3397 6.27303V9.40316H10.3873V6.27303H11.3397ZM8.81274 5.79684H10.8635V6.74922H8.81274V5.79684ZM8.33655 11.7588V6.27303H9.28893V11.7588H8.33655ZM6.34913 6.26387C6.41644 9.7644 7.9385 11.0494 8.92817 11.2968L8.69722 12.2207C7.14724 11.8333 5.46929 10.0452 5.39692 6.28218L6.34913 6.26387ZM3.68889 5.79684H5.87302V6.74922H3.68889V5.79684Z" fill="white"/>
</svg>
