<svg width="22" height="22" viewBox="0 0 22 22" fill="none" xmlns="http://www.w3.org/2000/svg">
<path d="M5.04561 2.9282C6.52115 1.8327 8.26931 1.16558 10.0983 1V4.02295C8.70578 4.20384 7.39974 4.80026 6.34996 5.7347C5.30018 6.66913 4.5552 7.89836 4.21186 9.26263C3.86852 10.6269 3.94269 12.0631 4.42473 13.3846C4.90677 14.706 5.77439 15.8517 6.91482 16.6725C8.05525 17.4934 9.41575 17.9516 10.8195 17.9875C12.2232 18.0234 13.6053 17.6354 14.786 16.8739C15.9668 16.1124 16.8916 15.0126 17.4403 13.7175C17.989 12.4224 18.1363 10.9919 17.8628 9.61182L20.4047 7.54546C21.0886 9.43053 21.183 11.4903 20.6893 13.4404C20.1621 15.522 18.9812 17.3788 17.3208 18.7369C15.6604 20.095 13.6084 20.8825 11.4673 20.9833C9.32632 21.0841 7.20964 20.4928 5.42946 19.2967C3.64929 18.1006 2.29985 16.3629 1.58016 14.34C0.860619 12.3169 0.809019 10.1157 1.43298 8.06097C2.05693 6.00626 3.32341 4.20687 5.04561 2.9282Z" stroke="white" stroke-miterlimit="2" stroke-linecap="round" stroke-linejoin="round"/>
<path d="M18.5348 4.37163C18.5348 4.37163 17.217 6.40208 16.8036 7.05996C16.186 6.14308 15.3617 5.38473 14.3974 4.84625V10.9776C14.3974 12.8587 12.8754 14.3836 10.998 14.3836C9.12066 14.3836 7.59863 12.8587 7.59863 10.9776C7.59863 9.09639 9.12066 7.57148 10.998 7.57148C11.675 7.57038 12.3367 7.77278 12.8976 8.15252V1.14025C15.1047 1.56564 17.1022 2.75069 18.5348 4.37163Z" stroke="white" stroke-miterlimit="10" stroke-linecap="round" stroke-linejoin="round"/>
</svg>
